<svg width="18" height="18" viewBox="0 0 18 18" fill="none" xmlns="http://www.w3.org/2000/svg">
<path d="M9.0003 0.00794325C5.31683 0.00794325 1.81901 -0.319724 0.482981 3.10912C-0.0688798 4.52529 0.0112619 6.36449 0.0112619 8.998C0.0112619 11.3089 -0.062793 13.4809 0.482981 14.8859C1.81597 18.3167 5.3422 17.9881 8.99827 17.9881C12.5255 17.9881 16.1623 18.3553 17.5146 14.8859C18.0675 13.4555 17.9863 11.6437 17.9863 8.998C17.9863 5.48597 18.1801 3.21868 16.4768 1.51643C14.7522 -0.208135 12.42 0.00794325 8.99625 0.00794325H9.0003ZM8.19483 1.62802C15.8783 1.61585 16.8562 0.761681 16.3165 12.6277C16.1248 16.8245 12.9293 16.3639 9.00132 16.3639C1.8393 16.3639 1.63337 16.159 1.63337 8.99394C1.63337 1.7457 2.20146 1.63208 8.19483 1.62599V1.62802ZM13.7987 3.12028C13.2032 3.12028 12.7203 3.60315 12.7203 4.19864C12.7203 4.79412 13.2032 5.277 13.7987 5.277C14.3941 5.277 14.877 4.79412 14.877 4.19864C14.877 3.60315 14.3941 3.12028 13.7987 3.12028ZM9.0003 4.38124C6.45099 4.38124 4.38456 6.44869 4.38456 8.998C4.38456 11.5473 6.45099 13.6137 9.0003 13.6137C11.5496 13.6137 13.615 11.5473 13.615 8.998C13.615 6.44869 11.5496 4.38124 9.0003 4.38124ZM9.0003 6.00131C12.9617 6.00131 12.9668 11.9947 9.0003 11.9947C5.03989 11.9947 5.0338 6.00131 9.0003 6.00131Z" fill="white"/>
</svg>
