<svg width="18" height="16" viewBox="0 0 18 16" fill="none" xmlns="http://www.w3.org/2000/svg">
<path d="M17.8596 2.50243C17.2007 2.79147 16.4986 2.98306 15.7665 3.07608C16.5196 2.62647 17.0944 1.91992 17.3646 1.06831C16.6625 1.48692 15.8873 1.7826 15.0611 1.94761C14.3944 1.23775 13.4443 0.798096 12.4077 0.798096C10.3966 0.798096 8.77755 2.43045 8.77755 4.43158C8.77755 4.71951 8.80191 4.99637 8.86171 5.25994C5.84174 5.11265 3.16951 3.66524 1.37436 1.46034C1.06096 2.00409 0.877128 2.62647 0.877128 3.29646C0.877128 4.5545 1.52498 5.66969 2.49066 6.31532C1.90704 6.30425 1.3345 6.13481 0.849442 5.86792C0.849442 5.87899 0.849442 5.89339 0.849442 5.90779C0.849442 7.67303 2.10859 9.13927 3.75977 9.47704C3.46409 9.55788 3.14183 9.59664 2.80738 9.59664C2.57482 9.59664 2.34005 9.58335 2.11967 9.53463C2.59033 10.9732 3.92589 12.0308 5.51395 12.0651C4.27805 13.0319 2.70882 13.6144 1.01002 13.6144C0.712121 13.6144 0.426403 13.6011 0.140686 13.5646C1.74978 14.6022 3.65678 15.1947 5.71328 15.1947C12.3977 15.1947 16.0523 9.65755 16.0523 4.85794C16.0523 4.69736 16.0467 4.54232 16.039 4.38839C16.7599 3.87676 17.3657 3.23777 17.8596 2.50243Z" fill="white"/>
</svg>
