<svg width="20" height="20" viewBox="0 0 20 20" fill="none" xmlns="http://www.w3.org/2000/svg">
<path d="M17.081 0.306152H2.91956C1.47683 0.306152 0.30722 1.47572 0.30722 2.91849V17.08C0.30722 18.5228 1.47679 19.6924 2.91956 19.6924H9.90391L9.91581 12.7648H8.11603C7.88213 12.7648 7.6923 12.5756 7.69139 12.3418L7.68276 10.1087C7.68186 9.87353 7.87227 9.68241 8.10744 9.68241H9.90395V7.52472C9.90395 5.02075 11.4332 3.65731 13.6669 3.65731H15.4999C15.7344 3.65731 15.9246 3.84743 15.9246 4.08199V5.96491C15.9246 6.19937 15.7345 6.38944 15.5001 6.38959L14.3753 6.39011C13.1605 6.39011 12.9253 6.96735 12.9253 7.81448V9.68246H15.5945C15.8489 9.68246 16.0462 9.90455 16.0162 10.1571L15.7515 12.3902C15.7262 12.6039 15.545 12.7649 15.3299 12.7649H12.9372L12.9253 19.6924H17.0811C18.5238 19.6924 19.6934 18.5229 19.6934 17.0802V2.91849C19.6933 1.47572 18.5238 0.306152 17.081 0.306152Z" fill="white"/>
</svg>
