<svg width="8" height="5" viewBox="0 0 8 5" fill="none" xmlns="http://www.w3.org/2000/svg">
<path d="M7.1805 0.0727547C6.76853 0.0781405 6.43588 0.410793 6.4305 0.822755C6.42008 1.45402 6.15715 2.05479 5.70051 2.49076C5.24386 2.92674 4.63156 3.16157 4.0005 3.14275C2.70067 3.18205 1.61398 2.16245 1.5705 0.862755C1.5705 0.448541 1.23471 0.112755 0.820496 0.112755C0.406282 0.112755 0.0704956 0.448541 0.0704956 0.862755C0.114251 2.99079 1.87237 4.6818 4.0005 4.64275C6.12862 4.6818 7.88674 2.99079 7.9305 0.862755C7.94148 0.657007 7.86735 0.4558 7.72548 0.306373C7.58362 0.156946 7.38654 0.0724614 7.1805 0.0727547Z" fill="white"/>
</svg>
