<svg width="20" height="20" viewBox="0 0 20 20" fill="none" xmlns="http://www.w3.org/2000/svg">
<path fill-rule="evenodd" clip-rule="evenodd" d="M6.50049 0.572754H13.5005C16.8142 0.572754 19.5005 3.25905 19.5005 6.57275V13.5728C19.5005 16.8865 16.8142 19.5728 13.5005 19.5728H6.50049C3.18678 19.5728 0.500488 16.8865 0.500488 13.5728V6.57275C0.500488 3.25905 3.18678 0.572754 6.50049 0.572754ZM13.5005 18.0728C15.9835 18.0673 17.995 16.0558 18.0005 13.5728V6.57275C17.995 4.08975 15.9835 2.07825 13.5005 2.07275H6.50049C4.01749 2.07825 2.00599 4.08975 2.00049 6.57275V13.5728C2.00599 16.0558 4.01749 18.0673 6.50049 18.0728H13.5005Z" fill="white"/>
</svg>
