<svg width="20" height="20" viewBox="0 0 20 20" fill="none" xmlns="http://www.w3.org/2000/svg">
<path fill-rule="evenodd" clip-rule="evenodd" d="M6.50049 0.572754H13.5005C16.8142 0.572754 19.5005 3.25905 19.5005 6.57275V13.5728C19.5005 16.8865 16.8142 19.5728 13.5005 19.5728H6.50049C3.18678 19.5728 0.500488 16.8865 0.500488 13.5728V6.57275C0.500488 3.25905 3.18678 0.572754 6.50049 0.572754ZM13.5005 18.0728C15.9835 18.0673 17.995 16.0558 18.0005 13.5728V6.57275C17.995 4.08975 15.9835 2.07825 13.5005 2.07275H6.50049C4.01749 2.07825 2.00599 4.08975 2.00049 6.57275V13.5728C2.00599 16.0558 4.01749 18.0673 6.50049 18.0728H13.5005Z" fill="white"/>
<path d="M13.1805 5.07275C12.7685 5.07814 12.4359 5.41079 12.4305 5.82275C12.4201 6.45402 12.1572 7.05479 11.7005 7.49076C11.2439 7.92674 10.6316 8.16157 10.0005 8.14275C8.70067 8.18205 7.61398 7.16245 7.5705 5.86275C7.5705 5.44854 7.23471 5.11275 6.8205 5.11275C6.40628 5.11275 6.0705 5.44854 6.0705 5.86275C6.11425 7.99079 7.87237 9.6818 10.0005 9.64275C12.1286 9.6818 13.8867 7.99079 13.9305 5.86275C13.9415 5.65701 13.8673 5.4558 13.7255 5.30637C13.5836 5.15695 13.3865 5.07246 13.1805 5.07275Z" fill="white"/>
</svg>
