<svg width="36" height="24" viewBox="0 0 36 24" fill="none" xmlns="http://www.w3.org/2000/svg">
<path d="M33.9908 8.43268L33.1988 7.44841C32.472 6.61618 31.621 5.84716 30.6552 5.15135L29.5988 4.44615C28.5076 3.77599 27.3239 3.20032 26.0645 2.74541C25.9131 2.68972 25.7467 2.64279 25.5891 2.5896L24.3595 2.2855C23.6153 2.08088 22.8295 1.86626 22.0164 1.73048C21.536 1.64976 21.1033 1.55152 20.4826 1.4977V0.111084H15.5171V1.4977C14.8964 1.55214 14.4824 1.61534 14.0038 1.69669C13.1882 1.83247 12.4167 2.01268 11.6725 2.21729L11.2169 2.33869H11.2175C11.2157 2.33931 11.2138 2.33931 11.2126 2.33994L10.4435 2.58272C10.2853 2.63591 10.1276 2.6891 9.97677 2.74479C8.7149 3.20094 7.53061 3.77599 6.43881 4.44677L6.00557 4.71146C6.00495 4.71208 6.00432 4.71208 6.0037 4.71271L5.38239 5.15197C4.41659 5.84779 3.56562 6.61681 2.83878 7.44841L2.48623 7.8495C2.48561 7.85013 2.48499 7.85075 2.48499 7.85138L2.04678 8.43268C0.817183 10.1372 0.12635 11.9512 0.0015905 13.8365C-0.0195131 14.1606 0.17104 14.4497 0.47518 14.5567C0.552767 14.5836 0.631595 14.5968 0.710423 14.5968C0.941942 14.5968 1.15732 14.4835 1.29512 14.2839C1.40001 14.1325 1.86181 13.8521 2.48251 13.493V17.0058C2.48251 20.1107 5.00687 22.6374 8.08738 22.6374H15.5171V23.8889H20.4826V22.6374H27.9496C31.0301 22.6374 33.5172 20.1107 33.5172 17.0058V13.4955C34.1379 13.8459 34.578 14.1281 34.6854 14.2833C34.8232 14.4835 35.0528 14.5974 35.285 14.5974C35.3638 14.5974 35.4463 14.5842 35.5227 14.5573C35.8274 14.4503 36 14.1606 36 13.8365V13.8352C36 11.9249 35.1944 10.1109 33.9908 8.43268ZM10.3982 3.92116C10.6279 3.83669 10.8662 3.75472 11.1114 3.67712L15.0764 10.1728C14.8666 10.1803 14.6593 10.1891 14.4532 10.1985C14.1205 10.2135 13.7798 10.2317 13.4216 10.2542C13.0343 10.2767 12.6513 10.3017 12.2746 10.3299L7.33758 5.35346C8.286 4.79406 9.31201 4.31349 10.3982 3.92116ZM6.26509 6.04239L8.51201 8.30691L10.6584 10.4707C9.90298 10.5458 9.17305 10.6315 8.47725 10.7291L4.69412 8.52779L3.92756 8.08165C4.59721 7.34516 5.37991 6.66186 6.26509 6.04239ZM2.90341 11.98L2.48258 12.1289V12.1351C1.86189 12.2972 1.72409 12.4605 1.4212 12.6276C1.70299 11.3999 2.27465 10.2054 3.12004 9.05966L6.5351 11.0457C5.82812 11.1784 5.16833 11.3236 4.55943 11.4806C4.55446 11.4819 4.55012 11.4831 4.54515 11.4844C4.27949 11.5532 4.02563 11.6245 3.78108 11.6977C3.72956 11.7134 3.67742 11.7284 3.62714 11.7441C3.37887 11.821 3.12811 11.8992 2.90341 11.98ZM15.5165 21.3859H8.08745C5.69157 21.3859 3.72397 19.4211 3.72397 17.0058V13.0193C3.72397 13.0143 3.76308 13.0087 3.77859 13.0036C3.8568 12.9786 3.9437 12.9542 4.02501 12.9292C4.11998 12.9004 4.2168 12.871 4.31549 12.8428C4.40301 12.8178 4.49612 12.7934 4.58674 12.7684C4.68357 12.7421 4.78039 12.7158 4.88033 12.6902C4.98709 12.6626 5.09819 12.6363 5.20867 12.6094C5.29557 12.5882 5.38247 12.5669 5.47185 12.5462C5.6084 12.5149 5.74806 12.4843 5.88957 12.4536C5.95413 12.4399 6.01868 12.4255 6.08385 12.4117C6.25889 12.3754 6.43703 12.3397 6.61889 12.3053C6.65055 12.2991 6.6822 12.2928 6.71448 12.2872C7.30227 12.1764 7.92793 12.0757 8.58028 11.9831C9.10105 11.9099 9.63174 11.8423 10.1717 11.7828C10.2053 11.7791 10.2382 11.7753 10.2717 11.7716C10.8651 11.7071 11.4678 11.6514 12.0767 11.6045L12.0897 11.6033C12.508 11.5701 12.8916 11.5419 13.2578 11.5182C13.408 11.5088 13.5576 11.4988 13.7091 11.49C13.7271 11.4888 13.7463 11.4875 13.7643 11.4869C14.0492 11.4712 14.3273 11.4568 14.6165 11.4443C14.9139 11.4312 15.5165 11.423 15.5165 11.4137V21.3859ZM15.5172 8.53718L14.9083 7.52412L12.3429 3.32171C12.9394 3.16903 13.5632 3.03825 14.2081 2.93063C14.6258 2.85992 14.8965 2.79922 15.5172 2.74979V8.53718ZM19.2413 22.6374H16.7586V12.9592V12.9586V11.3799V10.5714V1.3857V1.36255H19.2413V22.6374ZM29.7714 6.04176C30.6571 6.66186 31.4398 7.34516 32.1102 8.08165L27.5555 10.7316C27.4252 10.7135 27.2861 10.7016 27.1546 10.6841C26.6456 10.6171 26.1329 10.5545 25.609 10.5007C25.5302 10.4926 25.4557 10.4807 25.3763 10.4732L29.7714 6.04176ZM24.9256 3.67712C25.1707 3.75534 25.4097 3.83731 25.6419 3.92241C26.7256 4.31349 27.7504 4.79406 28.6994 5.35283L25.9944 8.07977L23.7599 10.3324C23.4899 10.3111 23.218 10.293 22.9468 10.2742C22.4999 10.2423 22.0468 10.2173 21.5844 10.1979C21.3783 10.1885 21.1704 10.1797 20.9606 10.1722L24.9256 3.67712ZM20.4826 2.74979C21.1033 2.79922 21.3926 2.85992 21.8122 2.93063C22.4552 3.03825 23.074 3.16903 23.6711 3.32171L20.4826 8.5378V2.74979ZM32.2758 17.0058C32.2758 19.4211 30.3455 21.3859 27.9496 21.3859H20.4826V11.4143C21.1033 11.4249 21.1846 11.4337 21.5223 11.4487C21.9748 11.4669 22.4204 11.4919 22.8568 11.5232C23.2193 11.5482 23.5836 11.5732 23.9461 11.6039C25.195 11.6996 26.4208 11.8329 27.5877 12L27.6287 12.005C27.6392 12.0062 27.6498 12.0081 27.661 12.01C28.16 12.0807 28.6386 12.1577 29.1004 12.2471C29.3356 12.2897 29.5702 12.3322 29.8111 12.3842C30.0376 12.4267 30.2536 12.4749 30.4671 12.5237C30.6571 12.5656 30.834 12.6069 31.0332 12.6607C31.2405 12.7083 31.4348 12.7621 31.6266 12.8166C31.8494 12.8791 32.048 12.9417 32.2436 13.0049C32.2578 13.0087 32.2758 13.0137 32.2758 13.0187V17.0058ZM33.5172 12.1439V12.1314L33.1181 11.9818C32.778 11.8567 32.3888 11.7315 31.9549 11.6108C31.7476 11.552 31.5347 11.4931 31.3287 11.4456C31.1344 11.3936 30.9401 11.3473 30.7365 11.3023C30.5118 11.2503 30.2809 11.1984 30.0531 11.1571C29.8719 11.1177 29.6838 11.082 29.497 11.0476L32.912 9.06029C33.7401 10.1879 34.2856 11.3799 34.5637 12.6201C34.2708 12.4561 34.1379 12.2984 33.5172 12.1439Z" fill="white"/>
<path d="M27.9497 18.8831H26.7083V20.1345H27.9497V18.8831Z" fill="white"/>
<path d="M29.8117 17.0056H28.5703V18.2571H29.8117V17.0056Z" fill="white"/>
<path d="M26.7082 15.7544H25.4668V17.0059H26.7082V15.7544Z" fill="white"/>
</svg>
