<svg width="19" height="20" viewBox="0 0 19 20" fill="none" xmlns="http://www.w3.org/2000/svg">
<path fill-rule="evenodd" clip-rule="evenodd" d="M17.9382 5.74233C16.512 2.31769 13.1704 0.0830355 9.46066 0.0731269C5.46246 0.0520725 1.90737 2.61305 0.661047 6.41209C-0.585272 10.2111 0.761902 14.3804 3.99559 16.7318C7.22927 19.0833 11.6107 19.0798 14.8407 16.7231L17.7207 19.6031C18.0135 19.8956 18.4878 19.8956 18.7807 19.6031C19.0731 19.3103 19.0731 18.8359 18.7807 18.5431L15.9907 15.7531C18.5968 13.113 19.3644 9.16696 17.9382 5.74233ZM16.6011 12.2421C15.4036 15.1277 12.5849 17.0072 9.46066 17.0031V16.9631C5.22037 16.9577 1.77812 13.5333 1.75066 9.29313C1.74662 6.16886 3.62605 3.35017 6.51172 2.1527C9.39739 0.955224 12.7203 1.61508 14.9295 3.82427C17.1387 6.03346 17.7986 9.35639 16.6011 12.2421Z" fill="white"/>
</svg>
